%TF.GenerationSoftware,KiCad,Pcbnew,9.0.4*%
%TF.CreationDate,2025-12-09T10:18:46+03:00*%
%TF.ProjectId,control-pcb,636f6e74-726f-46c2-9d70-63622e6b6963,rev?*%
%TF.SameCoordinates,Original*%
%TF.FileFunction,Soldermask,Bot*%
%TF.FilePolarity,Negative*%
%FSLAX46Y46*%
G04 Gerber Fmt 4.6, Leading zero omitted, Abs format (unit mm)*
G04 Created by KiCad (PCBNEW 9.0.4) date 2025-12-09 10:18:46*
%MOMM*%
%LPD*%
G01*
G04 APERTURE LIST*
G04 Aperture macros list*
%AMRoundRect*
0 Rectangle with rounded corners*
0 $1 Rounding radius*
0 $2 $3 $4 $5 $6 $7 $8 $9 X,Y pos of 4 corners*
0 Add a 4 corners polygon primitive as box body*
4,1,4,$2,$3,$4,$5,$6,$7,$8,$9,$2,$3,0*
0 Add four circle primitives for the rounded corners*
1,1,$1+$1,$2,$3*
1,1,$1+$1,$4,$5*
1,1,$1+$1,$6,$7*
1,1,$1+$1,$8,$9*
0 Add four rect primitives between the rounded corners*
20,1,$1+$1,$2,$3,$4,$5,0*
20,1,$1+$1,$4,$5,$6,$7,0*
20,1,$1+$1,$6,$7,$8,$9,0*
20,1,$1+$1,$8,$9,$2,$3,0*%
%AMFreePoly0*
4,1,37,0.603843,0.796157,0.639018,0.796157,0.711114,0.766294,0.766294,0.711114,0.796157,0.639018,0.796157,0.603843,0.800000,0.600000,0.800000,-0.600000,0.796157,-0.603843,0.796157,-0.639018,0.766294,-0.711114,0.711114,-0.766294,0.639018,-0.796157,0.603843,-0.796157,0.600000,-0.800000,0.000000,-0.800000,0.000000,-0.796148,-0.078414,-0.796148,-0.232228,-0.765552,-0.377117,-0.705537,
-0.507515,-0.618408,-0.618408,-0.507515,-0.705537,-0.377117,-0.765552,-0.232228,-0.796148,-0.078414,-0.796148,0.078414,-0.765552,0.232228,-0.705537,0.377117,-0.618408,0.507515,-0.507515,0.618408,-0.377117,0.705537,-0.232228,0.765552,-0.078414,0.796148,0.000000,0.796148,0.000000,0.800000,0.600000,0.800000,0.603843,0.796157,0.603843,0.796157,$1*%
%AMFreePoly1*
4,1,37,0.000000,0.796148,0.078414,0.796148,0.232228,0.765552,0.377117,0.705537,0.507515,0.618408,0.618408,0.507515,0.705537,0.377117,0.765552,0.232228,0.796148,0.078414,0.796148,-0.078414,0.765552,-0.232228,0.705537,-0.377117,0.618408,-0.507515,0.507515,-0.618408,0.377117,-0.705537,0.232228,-0.765552,0.078414,-0.796148,0.000000,-0.796148,0.000000,-0.800000,-0.600000,-0.800000,
-0.603843,-0.796157,-0.639018,-0.796157,-0.711114,-0.766294,-0.766294,-0.711114,-0.796157,-0.639018,-0.796157,-0.603843,-0.800000,-0.600000,-0.800000,0.600000,-0.796157,0.603843,-0.796157,0.639018,-0.766294,0.711114,-0.711114,0.766294,-0.639018,0.796157,-0.603843,0.796157,-0.600000,0.800000,0.000000,0.800000,0.000000,0.796148,0.000000,0.796148,$1*%
G04 Aperture macros list end*
%ADD10R,1.700000X1.700000*%
%ADD11C,1.700000*%
%ADD12C,3.000000*%
%ADD13RoundRect,0.102000X1.000000X1.000000X-1.000000X1.000000X-1.000000X-1.000000X1.000000X-1.000000X0*%
%ADD14C,2.204000*%
%ADD15RoundRect,0.250000X1.050000X1.050000X-1.050000X1.050000X-1.050000X-1.050000X1.050000X-1.050000X0*%
%ADD16C,2.600000*%
%ADD17RoundRect,0.250000X-1.350000X1.350000X-1.350000X-1.350000X1.350000X-1.350000X1.350000X1.350000X0*%
%ADD18C,3.200000*%
%ADD19C,2.400000*%
%ADD20RoundRect,0.250000X0.550000X-0.550000X0.550000X0.550000X-0.550000X0.550000X-0.550000X-0.550000X0*%
%ADD21C,1.600000*%
%ADD22R,1.905000X2.000000*%
%ADD23O,1.905000X2.000000*%
%ADD24C,2.857500*%
%ADD25RoundRect,0.250001X0.949999X0.949999X-0.949999X0.949999X-0.949999X-0.949999X0.949999X-0.949999X0*%
%ADD26C,2.200000*%
%ADD27C,1.850000*%
%ADD28RoundRect,0.200000X0.600000X0.600000X-0.600000X0.600000X-0.600000X-0.600000X0.600000X-0.600000X0*%
%ADD29FreePoly0,180.000000*%
%ADD30FreePoly1,180.000000*%
%ADD31RoundRect,0.250000X1.350000X-1.350000X1.350000X1.350000X-1.350000X1.350000X-1.350000X-1.350000X0*%
G04 APERTURE END LIST*
D10*
%TO.C,J6*%
X58875000Y-99205000D03*
D11*
X58875000Y-101745000D03*
X58875000Y-104285000D03*
X58875000Y-106825000D03*
X58875000Y-109365000D03*
X58875000Y-111905000D03*
X58875000Y-114445000D03*
X58875000Y-116985000D03*
X58875000Y-119525000D03*
X58875000Y-122065000D03*
X58875000Y-124605000D03*
X58875000Y-127145000D03*
X58875000Y-129685000D03*
X58875000Y-132225000D03*
X58875000Y-134765000D03*
%TD*%
D12*
%TO.C,U1*%
X90255000Y-142610000D03*
X90255000Y-95660000D03*
X65745000Y-142610000D03*
X65745000Y-95660000D03*
D13*
X90675000Y-134650000D03*
D14*
X90675000Y-132110000D03*
X90675000Y-129570000D03*
X90675000Y-127030000D03*
X90675000Y-124490000D03*
X90675000Y-121950000D03*
X90675000Y-119410000D03*
X90675000Y-116870000D03*
X90675000Y-114330000D03*
X90675000Y-111790000D03*
X90675000Y-109250000D03*
X90675000Y-106710000D03*
X90675000Y-104170000D03*
X90675000Y-101630000D03*
X90675000Y-99090000D03*
X65275000Y-99090000D03*
X65275000Y-101630000D03*
X65275000Y-104170000D03*
X65275000Y-106710000D03*
X65275000Y-109250000D03*
X65275000Y-111790000D03*
X65275000Y-114330000D03*
X65275000Y-116870000D03*
X65275000Y-119410000D03*
X65275000Y-121950000D03*
X65275000Y-124490000D03*
X65275000Y-127030000D03*
X65275000Y-129570000D03*
X65275000Y-132110000D03*
X65275000Y-134650000D03*
%TD*%
D15*
%TO.C,J2*%
X97980000Y-33250000D03*
D16*
X92900000Y-33250000D03*
%TD*%
D10*
%TO.C,J8*%
X106850000Y-144675000D03*
D11*
X106850000Y-142135000D03*
X106850000Y-139595000D03*
X106850000Y-137055000D03*
X106850000Y-134515000D03*
X106850000Y-131975000D03*
%TD*%
D17*
%TO.C,D2*%
X34725000Y-44285000D03*
D18*
X34725000Y-59525000D03*
%TD*%
D10*
%TO.C,J4*%
X141625000Y-144475000D03*
D11*
X141625000Y-141935000D03*
X141625000Y-139395000D03*
X141625000Y-136855000D03*
X141625000Y-134315000D03*
X141625000Y-131775000D03*
X141625000Y-129235000D03*
X141625000Y-126695000D03*
X141625000Y-124155000D03*
X141625000Y-121615000D03*
X141625000Y-119075000D03*
X141625000Y-116535000D03*
X141625000Y-113995000D03*
X141625000Y-111455000D03*
X141625000Y-108915000D03*
X141625000Y-106375000D03*
X141625000Y-103835000D03*
X141625000Y-101295000D03*
X141625000Y-98755000D03*
X141625000Y-96215000D03*
%TD*%
D19*
%TO.C,R1*%
X75575000Y-64865000D03*
X75575000Y-49625000D03*
%TD*%
D10*
%TO.C,J7*%
X98450000Y-101595000D03*
D11*
X98450000Y-104135000D03*
X98450000Y-106675000D03*
X98450000Y-109215000D03*
X98450000Y-111755000D03*
X98450000Y-114295000D03*
X98450000Y-116835000D03*
X98450000Y-119375000D03*
X98450000Y-121915000D03*
X98450000Y-124455000D03*
X98450000Y-126995000D03*
X98450000Y-129535000D03*
X98450000Y-132075000D03*
X98450000Y-134615000D03*
%TD*%
D15*
%TO.C,J1*%
X46225000Y-34050000D03*
D16*
X41145000Y-34050000D03*
%TD*%
D20*
%TO.C,U2*%
X73900000Y-42880000D03*
D21*
X76440000Y-42880000D03*
X76440000Y-35260000D03*
X73900000Y-35260000D03*
%TD*%
D22*
%TO.C,Q1*%
X97780000Y-45400000D03*
D23*
X95240000Y-45400000D03*
X92700000Y-45400000D03*
%TD*%
D19*
%TO.C,R3*%
X110725000Y-61145000D03*
X110725000Y-45905000D03*
%TD*%
D22*
%TO.C,U3*%
X59950000Y-68575000D03*
D23*
X62490000Y-68575000D03*
X65030000Y-68575000D03*
%TD*%
D17*
%TO.C,D4*%
X50675000Y-44035000D03*
D18*
X50675000Y-59275000D03*
%TD*%
D10*
%TO.C,J9*%
X106800000Y-127000000D03*
D11*
X106800000Y-124460000D03*
X106800000Y-121920000D03*
X106800000Y-119380000D03*
X106800000Y-116840000D03*
X106800000Y-114300000D03*
X106800000Y-111760000D03*
X106800000Y-109220000D03*
X106800000Y-106680000D03*
X106800000Y-104140000D03*
X106800000Y-101600000D03*
X106800000Y-99060000D03*
X106800000Y-96520000D03*
%TD*%
D24*
%TO.C,M1*%
X49535000Y-89075000D03*
X31755000Y-89075000D03*
X49535000Y-141145000D03*
X31755000Y-141145000D03*
%TD*%
D25*
%TO.C,C1*%
X43525000Y-71375000D03*
D19*
X36025000Y-71375000D03*
%TD*%
%TO.C,R2*%
X82675000Y-64945000D03*
X82675000Y-49705000D03*
%TD*%
D26*
%TO.C,A1*%
X127275000Y-144497500D03*
D27*
X126975000Y-141467500D03*
X122125000Y-141467500D03*
D26*
X121825000Y-144497500D03*
D28*
X133440000Y-144627500D03*
D21*
X133440000Y-142087500D03*
D29*
X133440000Y-139547500D03*
D21*
X133440000Y-137007500D03*
X133440000Y-134467500D03*
X133440000Y-131927500D03*
X133440000Y-129387500D03*
D29*
X133440000Y-126847500D03*
D21*
X133440000Y-124307500D03*
X133440000Y-121767500D03*
X133440000Y-119227500D03*
X133440000Y-116687500D03*
D29*
X133440000Y-114147500D03*
D21*
X133440000Y-111607500D03*
X133440000Y-109067500D03*
X133440000Y-106527500D03*
X133440000Y-103987500D03*
D29*
X133440000Y-101447500D03*
D21*
X133440000Y-98907500D03*
X133440000Y-96367500D03*
X115660000Y-96367500D03*
X115660000Y-98907500D03*
D30*
X115660000Y-101447500D03*
D21*
X115660000Y-103987500D03*
X115660000Y-106527500D03*
X115660000Y-109067500D03*
X115660000Y-111607500D03*
D30*
X115660000Y-114147500D03*
D21*
X115660000Y-116687500D03*
X115660000Y-119227500D03*
X115660000Y-121767500D03*
X115660000Y-124307500D03*
D30*
X115660000Y-126847500D03*
D21*
X115660000Y-129387500D03*
X115660000Y-131927500D03*
X115660000Y-134467500D03*
X115660000Y-137007500D03*
D30*
X115660000Y-139547500D03*
D21*
X115660000Y-142087500D03*
X115660000Y-144627500D03*
%TD*%
D31*
%TO.C,D3*%
X42775000Y-59475000D03*
D18*
X42775000Y-44235000D03*
%TD*%
D31*
%TO.C,D1*%
X59200000Y-59250000D03*
D18*
X59200000Y-44010000D03*
%TD*%
D10*
%TO.C,J3*%
X110225000Y-36875000D03*
D11*
X112765000Y-36875000D03*
X115305000Y-36875000D03*
%TD*%
M02*
