M48
; DRILL file {KiCad 9.0.4} date 2025-12-09T10:17:49+0300
; FORMAT={-:-/ absolute / metric / decimal}
; #@! TF.CreationDate,2025-12-09T10:17:49+03:00
; #@! TF.GenerationSoftware,Kicad,Pcbnew,9.0.4
; #@! TF.FileFunction,Plated,1,2,PTH
FMAT,2
METRIC
; #@! TA.AperFunction,Plated,PTH,ComponentDrill
T1C0.800
; #@! TA.AperFunction,Plated,PTH,ComponentDrill
T2C1.000
; #@! TA.AperFunction,Plated,PTH,ComponentDrill
T3C1.020
; #@! TA.AperFunction,Plated,PTH,ComponentDrill
T4C1.100
; #@! TA.AperFunction,Plated,PTH,ComponentDrill
T5C1.200
; #@! TA.AperFunction,Plated,PTH,ComponentDrill
T6C1.300
; #@! TA.AperFunction,Plated,PTH,ComponentDrill
T7C1.500
; #@! TA.AperFunction,Plated,PTH,ComponentDrill
T8C1.600
%
G90
G05
T1
X73.9Y-35.26
X73.9Y-42.88
X76.44Y-35.26
X76.44Y-42.88
T2
X58.875Y-99.205
X58.875Y-101.745
X58.875Y-104.285
X58.875Y-106.825
X58.875Y-109.365
X58.875Y-111.905
X58.875Y-114.445
X58.875Y-116.985
X58.875Y-119.525
X58.875Y-122.065
X58.875Y-124.605
X58.875Y-127.145
X58.875Y-129.685
X58.875Y-132.225
X58.875Y-134.765
X98.45Y-101.595
X98.45Y-104.135
X98.45Y-106.675
X98.45Y-109.215
X98.45Y-111.755
X98.45Y-114.295
X98.45Y-116.835
X98.45Y-119.375
X98.45Y-121.915
X98.45Y-124.455
X98.45Y-126.995
X98.45Y-129.535
X98.45Y-132.075
X98.45Y-134.615
X106.8Y-96.52
X106.8Y-99.06
X106.8Y-101.6
X106.8Y-104.14
X106.8Y-106.68
X106.8Y-109.22
X106.8Y-111.76
X106.8Y-114.3
X106.8Y-116.84
X106.8Y-119.38
X106.8Y-121.92
X106.8Y-124.46
X106.8Y-127.0
X106.85Y-131.975
X106.85Y-134.515
X106.85Y-137.055
X106.85Y-139.595
X106.85Y-142.135
X106.85Y-144.675
X110.225Y-36.875
X112.765Y-36.875
X115.305Y-36.875
X115.66Y-96.367
X115.66Y-98.907
X115.66Y-101.447
X115.66Y-103.987
X115.66Y-106.527
X115.66Y-109.067
X115.66Y-111.608
X115.66Y-114.147
X115.66Y-116.688
X115.66Y-119.227
X115.66Y-121.767
X115.66Y-124.307
X115.66Y-126.847
X115.66Y-129.387
X115.66Y-131.927
X115.66Y-134.468
X115.66Y-137.007
X115.66Y-139.547
X115.66Y-142.088
X115.66Y-144.627
X133.44Y-96.367
X133.44Y-98.907
X133.44Y-101.447
X133.44Y-103.987
X133.44Y-106.527
X133.44Y-109.067
X133.44Y-111.608
X133.44Y-114.147
X133.44Y-116.688
X133.44Y-119.227
X133.44Y-121.767
X133.44Y-124.307
X133.44Y-126.847
X133.44Y-129.387
X133.44Y-131.927
X133.44Y-134.468
X133.44Y-137.007
X133.44Y-139.547
X133.44Y-142.088
X133.44Y-144.627
X141.625Y-96.215
X141.625Y-98.755
X141.625Y-101.295
X141.625Y-103.835
X141.625Y-106.375
X141.625Y-108.915
X141.625Y-111.455
X141.625Y-113.995
X141.625Y-116.535
X141.625Y-119.075
X141.625Y-121.615
X141.625Y-124.155
X141.625Y-126.695
X141.625Y-129.235
X141.625Y-131.775
X141.625Y-134.315
X141.625Y-136.855
X141.625Y-139.395
X141.625Y-141.935
X141.625Y-144.475
T3
X65.275Y-99.09
X65.275Y-101.63
X65.275Y-104.17
X65.275Y-106.71
X65.275Y-109.25
X65.275Y-111.79
X65.275Y-114.33
X65.275Y-116.87
X65.275Y-119.41
X65.275Y-121.95
X65.275Y-124.49
X65.275Y-127.03
X65.275Y-129.57
X65.275Y-132.11
X65.275Y-134.65
X90.675Y-99.09
X90.675Y-101.63
X90.675Y-104.17
X90.675Y-106.71
X90.675Y-109.25
X90.675Y-111.79
X90.675Y-114.33
X90.675Y-116.87
X90.675Y-119.41
X90.675Y-121.95
X90.675Y-124.49
X90.675Y-127.03
X90.675Y-129.57
X90.675Y-132.11
X90.675Y-134.65
T4
X59.95Y-68.575
X62.49Y-68.575
X65.03Y-68.575
X92.7Y-45.4
X95.24Y-45.4
X97.78Y-45.4
T5
X36.025Y-71.375
X43.525Y-71.375
X75.575Y-49.625
X75.575Y-64.865
X82.675Y-49.705
X82.675Y-64.945
X110.725Y-45.905
X110.725Y-61.145
T6
X41.145Y-34.05
X46.225Y-34.05
X92.9Y-33.25
X97.98Y-33.25
T7
X31.755Y-89.075
X31.755Y-141.145
X49.535Y-89.075
X49.535Y-141.145
T8
X34.725Y-44.285
X34.725Y-59.525
X42.775Y-44.235
X42.775Y-59.475
X50.675Y-44.035
X50.675Y-59.275
X59.2Y-44.01
X59.2Y-59.25
M30
